<?xml version="1.0" encoding="UTF-8" standalone="no"?><!DOCTYPE svg PUBLIC "-//W3C//DTD SVG 1.1//EN" "http://www.w3.org/Graphics/SVG/1.1/DTD/svg11.dtd"><svg width="100%" height="100%" viewBox="0 0 1600 1600" version="1.1" xmlns="http://www.w3.org/2000/svg" xmlns:xlink="http://www.w3.org/1999/xlink" xml:space="preserve" xmlns:serif="http://www.serif.com/" style="fill-rule:evenodd;clip-rule:evenodd;stroke-linejoin:round;stroke-miterlimit:2;"><g><path d="M236.5,47.5c375.333,-0.167 750.667,0 1126,0.5c68.07,6.096 120.57,37.596 157.5,94.5c16.68,27.716 26.35,57.716 29,90c0.67,378 0.67,756 0,1134c-8.86,79.48 -49.36,135.98 -121.5,169.5c-20.84,8.57 -42.51,13.57 -65,15c-375.333,0.67 -750.667,0.67 -1126,0c-67.891,-6.29 -120.391,-37.79 -157.5,-94.5c-16.683,-27.72 -26.35,-57.72 -29,-90c-0.667,-378 -0.667,-756 0,-1134c8.756,-78.389 48.589,-134.556 119.5,-168.5c21.575,-9.144 43.908,-14.644 67,-16.5Zm1,26c374.667,-0.167 749.333,0 1124,0.5c57.56,5.35 102.39,31.85 134.5,79.5c15.55,24.776 24.55,51.776 27,81c0.67,376.667 0.67,753.333 0,1130c-5.77,57.05 -32.27,101.55 -79.5,133.5c-24.25,14.97 -50.59,23.97 -79,27c-376.667,0.67 -753.333,0.67 -1130,0c-69.196,-8.83 -118.03,-45 -146.5,-108.5c-6.52,-16.75 -10.52,-34.08 -12,-52c-0.667,-377 -0.667,-754 0,-1131c6.241,-56.521 32.741,-100.688 79.5,-132.5c25.306,-15.491 52.64,-24.658 82,-27.5Z"/></g><g><path d="M783.5,409.5c1.827,-28.316 2.66,-56.983 2.5,-86c5.297,-4.74 5.797,-9.907 1.5,-15.5c-11.069,-3.891 -15.902,-0.058 -14.5,11.5c1.333,1.333 2.667,2.667 4,4c-0.16,29.017 0.673,57.684 2.5,86c-29.064,57.332 -56.898,115.332 -83.5,174c-2.835,5.177 -5.668,10.344 -8.5,15.5c-78.259,167.563 -156.259,335.397 -234,503.5c-68.663,1 -137.33,1.33 -206,1c-0.167,-50.67 0,-101.33 0.5,-152c0.75,-0.626 1.584,-1.126 2.5,-1.5c24.998,-1.368 49.998,-2.702 75,-4c7.835,-0.924 15.668,-2.091 23.5,-3.5c95.154,-204.349 189.987,-408.682 284.5,-613c-5.112,-1.284 -10.279,-2.284 -15.5,-3c-35.195,-2.894 -70.362,-6.061 -105.5,-9.5c-1.884,-0.216 -3.551,-0.883 -5,-2c0.651,-3.918 0.984,-7.918 1,-12c-2.888,-46.674 -4.888,-93.508 -6,-140.5c125.749,1.525 251.416,3.692 377,6.5c2.077,0.192 4.077,0.692 6,1.5c120.58,258.549 241.08,517.216 361.5,776c0.96,1.079 1.79,2.245 2.5,3.5c34.33,0.5 68.67,0.667 103,0.5l0,153c-143,-0.02 -286,-0.52 -429,-1.5c6.229,-18.19 12.563,-36.35 19,-54.5c12.773,-5.31 25.773,-10.15 39,-14.5c4.625,-13.37 8.958,-26.87 13,-40.5c5.79,-2.73 11.46,-5.73 17,-9c6.44,-21.097 11.61,-42.431 15.5,-64c-71.768,-158.808 -145.935,-316.475 -222.5,-473c-6.774,-12.558 -13.774,-24.892 -21,-37Z"/></g><g><path d="M800.5,705.5c4.014,-0.166 8.014,0.001 12,0.5c-18.447,9.761 -34.614,22.594 -48.5,38.5c-0.251,1.933 -0.751,3.766 -1.5,5.5c29.555,23.62 58.555,47.953 87,73c-3.083,0.786 -5.249,2.619 -6.5,5.5c-28.667,-24 -57.333,-48 -86,-72c-1.509,0.59 -3.009,1.256 -4.5,2c-13.109,16.213 -23.109,34.213 -30,54c-2.601,-8.309 -2.434,-16.642 0.5,-25c4.251,-13.171 10.584,-25.171 19,-36c-0.061,-8.599 4.106,-13.432 12.5,-14.5c12.538,-14.725 27.871,-25.225 46,-31.5Z"/></g><g><path d="M827.5,821.5c1.699,-0.16 3.366,0.006 5,0.5c2.537,2.872 5.37,5.372 8.5,7.5c1.025,15.388 2.525,30.722 4.5,46c-21.511,4.995 -33.511,-3.505 -36,-25.5c0.586,-13.056 6.586,-22.556 18,-28.5Z"/></g><g><path d="M850.5,824.5c7.635,-1.307 12.468,1.693 14.5,9c2.026,18.235 4.192,36.402 6.5,54.5c-1.128,6.795 -5.128,10.462 -12,11c-17.999,1.111 -35.999,1.778 -54,2c-7.448,-3.333 -9.614,-8.833 -6.5,-16.5c1.543,-1.878 3.376,-3.378 5.5,-4.5c14.304,-1.332 28.638,-2.165 43,-2.5c-2.087,-15.614 -3.254,-31.281 -3.5,-47c1.494,-2.814 3.66,-4.814 6.5,-6Z"/></g><g><path d="M867.5,838.5c7.971,5.67 15.638,11.836 23,18.5c9.948,-0.87 15.281,3.63 16,13.5c4.986,3.655 9.653,7.655 14,12c-1.667,2.333 -3.667,4.333 -6,6c-3,-2.5 -6,-5 -9,-7.5c-1.555,-1.289 -3.221,-1.956 -5,-2c-10.667,12 -21.333,24 -32,36c-5.514,3.419 -10.847,3.086 -16,-1c-5.837,-3.418 -11.504,-7.084 -17,-11c10,-1 20,-2 30,-3c4.536,-2.891 7.203,-7.058 8,-12.5c-1.015,-3.631 -1.181,-7.298 -0.5,-11c3.69,-4.189 7.19,-8.522 10.5,-13c-4.326,-4.157 -8.826,-8.157 -13.5,-12c-1.239,-4.24 -2.073,-8.574 -2.5,-13Z"/></g><g><path d="M800.5,865.5c3.682,-0.165 7.348,0.001 11,0.5c2.63,3.632 5.63,6.965 9,10c-5.315,0.813 -10.648,1.479 -16,2c-9.18,4.564 -11.347,11.397 -6.5,20.5c1.952,2.394 4.452,3.894 7.5,4.5c6.094,0.293 12.094,0.46 18,0.5c-10.057,16.56 -18.557,33.894 -25.5,52c-0.667,1.667 -0.667,3.333 0,5c16.968,12.973 33.301,26.64 49,41c8.531,25.93 16.865,51.93 25,78c1.325,6.02 -0.175,11.19 -4.5,15.5c-8.579,0.82 -17.079,0.65 -25.5,-0.5c-8.661,-24.48 -16.828,-49.15 -24.5,-74c-20.188,-16.69 -40.522,-33.189 -61,-49.5c-5.376,-7.676 -7.209,-16.176 -5.5,-25.5c5.257,-28.349 17.757,-52.849 37.5,-73.5c3.7,-2.902 7.7,-5.068 12,-6.5Z"/></g><g><path d="M997.5,969.5c4.58,-1.157 7.25,0.51 8,5c-3.34,6.663 -6.678,6.663 -10,0c0.956,-1.575 1.623,-3.242 2,-5Z"/></g><g><path d="M770.5,985.5c13.269,9.929 26.269,20.26 39,31c0.325,30.19 -9.008,57.02 -28,80.5c-7.315,-0.44 -14.648,-1.11 -22,-2c-4.877,-5.47 -6.044,-11.64 -3.5,-18.5c13.724,-19.5 20.391,-41.17 20,-65c-0.89,-8.89 -2.724,-17.558 -5.5,-26Z"/></g><g><path d="M903.5,1078.5c15.078,-1.45 19.578,4.55 13.5,18c-0.519,1.02 -1.353,1.68 -2.5,2c-4.681,-1 -9.347,-2 -14,-3c-0.019,-1.56 -0.352,-3.06 -1,-4.5c1.44,-4.15 2.774,-8.32 4,-12.5Z"/></g><g><path d="M881.5,1081.5c4.546,-0.87 7.546,0.8 9,5c-2.094,4.98 -5.261,5.98 -9.5,3c-0.602,-2.72 -0.435,-5.39 0.5,-8Z"/></g><g><path d="M735.5,1082.5c3.41,-0.04 6.743,0.46 10,1.5c1.461,2.42 2.794,4.92 4,7.5c-0.813,1.31 -1.813,2.48 -3,3.5c-4.647,0 -9.314,-0.16 -14,-0.5c-0.17,-4.32 0.83,-8.32 3,-12Z"/></g><g><path d="M822.5,1085.5c5.973,-1.11 9.139,1.23 9.5,7c-0.5,0.5 -1,1 -1.5,1.5c-4.321,0.5 -8.654,0.67 -13,0.5c0.378,-3.76 2.044,-6.76 5,-9Z"/></g><g><path d="M795.5,1093.5c4.077,-0.48 6.41,1.18 7,5c-3.054,0.82 -6.054,0.82 -9,0c0.674,-1.7 1.341,-3.36 2,-5Z"/></g><g><path d="M266.5,1216.5c39.833,-2.51 68.333,14.16 85.5,50c1.802,4.87 3.135,9.87 4,15c0.333,19.67 0.667,39.33 1,59c2.574,9.58 8.407,16.41 17.5,20.5c-15.663,0.5 -31.33,0.67 -47,0.5c-0.005,-8.06 -0.671,-16.06 -2,-24c-19.568,24.24 -44.568,32.41 -75,24.5c-17.899,-2.7 -33.066,-10.53 -45.5,-23.5c-14.31,-27.07 -7.477,-46.9 20.5,-59.5c3.92,-1.31 7.92,-2.31 12,-3c29.606,-1.51 58.606,1.99 87,10.5c1.947,-20.24 -7.053,-32.74 -27,-37.5c-20.697,-4.6 -40.697,-2.6 -60,6c-6.143,3.64 -11.143,8.48 -15,14.5c-4.301,-2.47 -8.467,-5.14 -12.5,-8c4.642,-18.99 16.142,-32.15 34.5,-39.5c7.263,-2.68 14.597,-4.51 22,-5.5Zm-8,79c-7.076,0.46 -14.076,1.96 -21,4.5c-4.448,2.11 -7.948,5.28 -10.5,9.5c-3.497,10.23 -0.331,17.4 9.5,21.5c14.152,3.18 28.485,4.18 43,3c22.198,-0.24 37.198,-10.57 45,-31c-21.733,-4.88 -43.733,-7.38 -66,-7.5Z"/></g><g><path d="M641.5,1216.5c28.828,-0.69 46.995,12.98 54.5,41c2.259,8.56 3.759,17.22 4.5,26c-1,0.33 -2,0.67 -3,1c-9.319,-0.96 -18.652,-1.79 -28,-2.5c-0.45,-8.89 -1.617,-17.73 -3.5,-26.5c-4.061,-6.28 -9.894,-9.28 -17.5,-9c-21.056,0.1 -36.889,9.1 -47.5,27c-1.578,3.16 -2.578,6.49 -3,10c-0.667,19.67 -0.667,39.33 0,59c1.747,7.76 5.914,13.92 12.5,18.5c-19,0.67 -38,0.67 -57,0c6.579,-5 10.745,-11.5 12.5,-19.5c0.667,-34 0.667,-68 0,-102c-1.755,-8 -5.921,-14.5 -12.5,-19.5c14.663,-0.5 29.33,-0.67 44,-0.5c-0.167,11.01 0,22.01 0.5,33c8.354,-19.72 22.854,-31.72 43.5,-36Z"/></g><g><path d="M786.5,1216.5c24.378,-2 47.044,3.17 68,15.5c8.766,6.77 15.266,15.27 19.5,25.5c3.15,10.22 1.484,19.55 -5,28c-7.542,9.02 -17.042,14.85 -28.5,17.5c-14.286,1.58 -28.62,1.91 -43,1c-17.868,-1.92 -35.534,-4.59 -53,-8c0.982,14.64 7.982,25.31 21,32c21.783,7.76 43.783,8.43 66,2c12.701,-3.55 22.701,-10.72 30,-21.5c4.468,2.64 8.802,5.47 13,8.5c-16.426,35.06 -44.093,50.72 -83,47c-45.328,-4.17 -71.328,-28.67 -78,-73.5c4.931,-43.93 29.264,-68.6 73,-74Zm4,30c-6.671,0.83 -13.337,2.33 -20,4.5c-12.753,5 -20.753,14.16 -24,27.5c0.525,0.69 1.192,1.19 2,1.5c10.246,2.21 20.579,3.87 31,5c17.203,2.38 34.203,1.38 51,-3c5.388,-2.06 9.554,-5.56 12.5,-10.5c3.622,-8.52 1.455,-15.02 -6.5,-19.5c-15.016,-4.27 -30.35,-6.1 -46,-5.5Z"/></g><g><path d="M977.5,1216.5c28.72,-1.75 48.56,10.58 59.5,37c2.14,6.21 3.8,12.54 5,19c1.22,23.64 1.89,47.31 2,71c1.96,7.08 5.79,12.92 11.5,17.5c-18.67,0.67 -37.33,0.67 -56,0c6.58,-5 10.75,-11.5 12.5,-19.5c0.67,-21.67 0.67,-43.33 0,-65c-0.62,-18.96 -10.29,-28.96 -29,-30c-16.177,-0.17 -29.844,5.5 -41,17c-4.941,7.22 -7.608,15.22 -8,24c-0.667,18 -0.667,36 0,54c1.755,8 5.921,14.5 12.5,19.5c-18.676,0.83 -37.342,0.67 -56,-0.5c5.591,-4.43 9.425,-10.1 11.5,-17c0.667,-35.33 0.667,-70.67 0,-106c-1.944,-7.05 -5.778,-12.88 -11.5,-17.5c14.329,-0.5 28.663,-0.67 43,-0.5c-0.167,11.34 0,22.67 0.5,34c5.979,-13.98 15.479,-24.81 28.5,-32.5c4.982,-1.99 9.982,-3.49 15,-4.5Z"/></g><g><path d="M1130.5,1216.5c21.74,-2.26 42.07,1.91 61,12.5c14.82,9.79 22.82,23.63 24,41.5c-10.33,-0.72 -20.66,-1.39 -31,-2c-0.35,-12.85 -7.01,-19.68 -20,-20.5c-15.33,-1.91 -30.66,-1.91 -46,0c-4.14,0.93 -8.14,2.27 -12,4c-4.55,4.43 -5.05,9.27 -1.5,14.5c2.92,2.21 6.09,4.05 9.5,5.5c21.25,5.04 42.59,9.7 64,14c11.87,3.02 22.37,8.52 31.5,16.5c11.18,18.65 8.01,34.48 -9.5,47.5c-12.61,8.63 -26.61,13.3 -42,14c-21.69,2.76 -42.02,-1.24 -61,-12c-17.76,-11.36 -27.43,-27.52 -29,-48.5c10.33,0.72 20.66,1.39 31,2c-0.05,14.39 6.95,23.22 21,26.5c19.83,3.61 39.49,2.94 59,-2c5.44,-2.11 7.28,-5.94 5.5,-11.5c-2.41,-2.46 -5.24,-4.29 -8.5,-5.5c-22.36,-4.89 -44.69,-9.89 -67,-15c-12.81,-3.32 -23.64,-9.82 -32.5,-19.5c-8.08,-13.39 -7.08,-26.06 3,-38c14.08,-13.86 30.92,-21.86 50.5,-24Z"/></g><g><path d="M1307.5,1216.5c24.38,-2 47.05,3.17 68,15.5c14.48,10.12 21.31,23.96 20.5,41.5c-6.24,15.9 -17.74,25.73 -34.5,29.5c-31.9,2.92 -63.4,0.42 -94.5,-7.5c-0.52,16.02 6.98,27.19 22.5,33.5c20.9,6.87 41.9,7.2 63,1c12.7,-3.55 22.7,-10.72 30,-21.5c4.47,2.64 8.8,5.47 13,8.5c-16.43,35.06 -44.09,50.72 -83,47c-45.32,-4.15 -71.32,-28.65 -78,-73.5c4.92,-43.92 29.25,-68.58 73,-74Zm2,30c-20.96,1.49 -34.96,12.15 -42,32c0.21,0.59 0.54,1.09 1,1.5c17.7,3.28 35.53,5.44 53.5,6.5c12.45,0.26 24.28,-2.24 35.5,-7.5c3.26,-2.59 5.76,-5.76 7.5,-9.5c2.28,-7.94 -0.22,-13.77 -7.5,-17.5c-15.68,-4.4 -31.68,-6.23 -48,-5.5Z"/></g><g><path d="M372.5,1220.5c18.829,-1.16 37.829,-1.33 57,-0.5c-6.071,4.41 -10.238,10.25 -12.5,17.5c-0.667,23 -0.667,46 0,69c1.589,17.93 11.256,27.26 29,28c37.57,-2.41 53.903,-22.41 49,-60c0.667,-11 0.667,-22 0,-33c-1.217,-8.88 -5.384,-16.05 -12.5,-21.5c18.667,-0.67 37.333,-0.67 56,0c-5.447,4.4 -9.28,9.9 -11.5,16.5c-0.667,36 -0.667,72 0,108c2.22,6.6 6.053,12.1 11.5,16.5c-14.663,0.5 -29.33,0.67 -44,0.5c0.167,-10.67 0,-21.34 -0.5,-32c-18.223,34.6 -45.056,43.44 -80.5,26.5c-15.435,-12.03 -24.269,-27.86 -26.5,-47.5c-1.247,-23.3 -1.914,-46.64 -2,-70c-1.699,-7.84 -5.866,-13.84 -12.5,-18Z"/></g><g><path d="M1182.5,1384.5c14.14,-2.51 25.98,1.49 35.5,12c2.29,3.69 3.45,7.69 3.5,12c-3.99,-0.5 -7.99,-1 -12,-1.5c-0.92,-5.15 -3.92,-8.48 -9,-10c-7.56,-1.97 -14.89,-1.3 -22,2c-6.43,6.26 -7.6,13.43 -3.5,21.5c4.25,5.21 9.75,7.87 16.5,8c10.48,-0.4 18.81,-4.74 25,-13c2.25,0.62 3.92,1.96 5,4c-5.69,13.67 -16.03,20.67 -31,21c-24.64,-3.45 -33.81,-17.12 -27.5,-41c4.65,-7.49 11.15,-12.49 19.5,-15Z"/></g><g><path d="M1249.5,1384.5c17.05,-3.06 29.55,2.94 37.5,18c3.72,22.64 -5.95,35.3 -29,38c-26.29,-3.6 -35.29,-17.93 -27,-43c4.69,-6.54 10.86,-10.87 18.5,-13Zm7,11c-5.81,0.68 -10.65,3.34 -14.5,8c-5.08,14.45 0.08,22.79 15.5,25c10.85,-0.41 17.18,-5.91 19,-16.5c-2.1,-10.9 -8.76,-16.4 -20,-16.5Z"/></g><g><path d="M1322.5,1384.5c10.3,-2.38 18.47,0.62 24.5,9c0.67,2 1.33,4 2,6c7.58,-15.42 19.08,-19.25 34.5,-11.5c3.88,2.93 6.38,6.76 7.5,11.5c1.21,10.95 1.88,21.95 2,33c1.12,2.12 2.62,3.96 4.5,5.5c-7.33,0.67 -14.67,0.67 -22,0c2.12,-1.73 3.62,-3.9 4.5,-6.5c0.67,-8.33 0.67,-16.67 0,-25c-0.2,-6.53 -3.53,-10.2 -10,-11c-9.05,0.19 -15.05,4.52 -18,13c-0.67,8 -0.67,16 0,24c1.15,2.15 2.65,3.98 4.5,5.5c-7.33,0.67 -14.67,0.67 -22,0c2.39,-1.95 3.89,-4.45 4.5,-7.5c1.05,-10.47 0.39,-20.8 -2,-31c-6.11,-4.33 -12.61,-4.5 -19.5,-0.5c-2.93,2.26 -5.1,5.1 -6.5,8.5c-0.67,8.33 -0.67,16.67 0,25c0.69,2.56 2.19,4.39 4.5,5.5c-7.33,0.67 -14.67,0.67 -22,0c2.68,-2.19 4.18,-5.03 4.5,-8.5c0.67,-11.67 0.67,-23.33 0,-35c-0.32,-3.47 -1.82,-6.31 -4.5,-8.5c5.66,-0.5 11.32,-0.67 17,-0.5c-0.17,3.35 0,6.68 0.5,10c2.92,-4.69 6.75,-8.36 11.5,-11Z"/></g><g><path d="M1142.5,1422.5c11.62,-0.21 14.96,4.96 10,15.5c-10.39,4.29 -15.22,0.79 -14.5,-10.5c1.02,-2.19 2.52,-3.85 4.5,-5Z"/></g></svg>