<?xml version="1.0" encoding="UTF-8" standalone="no"?><!DOCTYPE svg PUBLIC "-//W3C//DTD SVG 1.1//EN" "http://www.w3.org/Graphics/SVG/1.1/DTD/svg11.dtd"><svg width="100%" height="100%" viewBox="0 0 2031 500" version="1.1" xmlns="http://www.w3.org/2000/svg" xmlns:xlink="http://www.w3.org/1999/xlink" xml:space="preserve" xmlns:serif="http://www.serif.com/" style="fill-rule:evenodd;clip-rule:evenodd;stroke-linejoin:round;stroke-miterlimit:2;"><g><path d="M285.237,132.595c1.187,-17.6 2.236,-35.434 3.148,-53.503c-8.149,-1.587 -10.509,1.037 -7.082,7.868c0.268,15.487 1.055,30.699 2.361,45.635c-57.706,122.756 -115.406,245.498 -173.098,368.226c-36.703,1.574 -73.421,2.098 -110.154,1.574c-0.262,-27.282 0.001,-54.557 0.787,-81.828c17.404,-2.431 34.976,-3.481 52.716,-3.147c49.763,-108.917 100.119,-217.497 151.068,-325.739c-22.006,-2.882 -44.036,-5.505 -66.092,-7.869c-1.98,-27.236 -3.028,-54.511 -3.147,-81.828c42.49,-0.262 84.978,0 127.463,0.787c25.807,0.07 51.509,1.119 77.107,3.147c63.922,138.277 128.44,276.23 193.555,413.862c17.826,0.787 35.661,1.05 53.503,0.787l-0,81.828c-76.066,0.524 -152.123,-0 -228.175,-1.574c3.875,-9.262 7.285,-18.704 10.229,-28.325c6.342,-3.078 12.899,-5.7 19.67,-7.868c3.355,-7.095 6.241,-14.439 8.655,-22.031c2.623,-1.573 5.245,-3.147 7.868,-4.72c4.628,-11.162 7.251,-22.703 7.868,-34.62c-40.624,-91.215 -83.373,-181.435 -128.25,-270.662Zm45.635,236.042c2.376,2.103 5,3.939 7.868,5.508c-6.573,7.215 -9.196,5.379 -7.868,-5.508Z" style="stroke:#fff;stroke-width:1px;"/></g><g><path d="M623.296,137.644c47.52,-1.344 81.502,19.355 101.944,62.098c2.531,6.332 4.256,12.887 5.174,19.664c0.051,25.227 0.741,50.411 2.07,75.552c3.817,10.028 10.544,17.445 20.182,22.251c-18.971,0.518 -37.946,0.691 -56.923,0.518c-0.633,-10.363 -1.496,-20.713 -2.587,-31.049c-9.035,12.146 -20.247,21.634 -33.636,28.461c-32.363,9.11 -63.757,6.35 -94.181,-8.279c-25.314,-13.196 -35.146,-33.722 -29.496,-61.58c7.564,-16.47 20.156,-26.993 37.776,-31.566c16.064,-3.946 32.279,-4.636 48.642,-2.07c24.112,2.407 47.744,7.064 70.895,13.972c1.47,-26.111 -10.432,-42.153 -35.706,-48.126c-20.521,-3.947 -40.876,-3.258 -61.062,2.07c-12.899,4.631 -23.422,12.393 -31.567,23.287c-5.164,-3.089 -10.339,-6.194 -15.524,-9.315c7.087,-25.722 23.474,-42.799 49.16,-51.23c8.277,-2.355 16.557,-3.907 24.839,-4.658Zm-19.664,98.321c29.701,-0.893 59.026,2.039 87.971,8.797c-8.315,23.165 -24.875,35.929 -49.677,38.294c-15.525,0.69 -31.049,0.69 -46.573,-0c-6.484,-0.759 -12.694,-2.483 -18.63,-5.175c-11.392,-12.05 -10.703,-23.435 2.07,-34.154c8.004,-3.89 16.283,-6.477 24.839,-7.762Z" style="stroke:#fff;stroke-width:1px;"/></g><g><path d="M1087.99,137.644c28.927,-0.287 49.108,12.821 60.545,39.329c5.65,14.303 8.59,29.137 8.797,44.503c-12.44,-0.519 -24.86,-1.382 -37.259,-2.588c-0.838,-6.297 -1.356,-12.68 -1.552,-19.146c0.507,-10.61 -3.798,-18.372 -12.937,-23.287c-30.624,-4.867 -54.256,5.655 -70.895,31.566c-2.004,4.291 -3.385,8.776 -4.139,13.455c-0.691,23.459 -0.691,46.918 -0,70.377c1.62,10.91 6.967,19.363 16.041,25.356c-23.466,0.862 -46.926,0.69 -70.377,-0.517c7.86,-5.716 12.862,-13.307 15.007,-22.769c0.691,-42.778 0.691,-85.557 0,-128.335c-2.264,-9.533 -7.267,-17.295 -15.007,-23.286c18.282,-0.518 36.565,-0.691 54.853,-0.518c-0.173,13.459 0,26.913 0.518,40.364c8.072,-18.767 21.355,-32.395 39.845,-40.881c5.599,-1.549 11.116,-2.756 16.56,-3.623Z" style="stroke:#fff;stroke-width:1px;"/></g><g><path d="M1271.18,137.644c23.493,-0.786 45.91,3.527 67.272,12.937c17.004,8.722 28.906,22.005 35.706,39.846c3.353,15.142 -0.621,28.079 -11.902,38.811c-12.233,10.293 -26.381,16.158 -42.433,17.594c-36.006,1.04 -71.536,-2.582 -106.601,-10.867c0.114,15.785 6.676,28.032 19.664,36.741c15.67,8.378 32.405,12 50.196,10.867c26.05,1.779 48.819,-5.811 68.307,-22.769c2.473,-2.823 4.543,-5.928 6.21,-9.314c5.651,3.244 11.001,6.866 16.041,10.867c-13.92,33.227 -38.759,52.545 -74.516,57.957c-32.591,4.099 -62.263,-3.146 -89.007,-21.734c-37.113,-32.707 -44.523,-71.172 -22.251,-115.398c12.047,-19.585 29.124,-32.868 51.23,-39.845c10.64,-3.038 21.341,-4.935 32.084,-5.693Zm-4.14,37.259c18.515,-0.974 36.803,0.578 54.853,4.657c14.437,4.33 18.753,13.472 12.937,27.426c-5.206,7.355 -12.275,12.012 -21.217,13.972c-20.616,4.379 -41.315,4.724 -62.097,1.035c-12.161,-1.452 -24.229,-3.349 -36.224,-5.692c3.353,-16.988 13.02,-28.89 28.979,-35.706c7.566,-2.582 15.162,-4.479 22.769,-5.692Z" style="stroke:#fff;stroke-width:1px;"/></g><g><path d="M1505.08,137.644c35.313,-0.378 59.293,15.836 71.929,48.643c2.515,7.055 4.244,14.299 5.175,21.734c0.994,30.03 2.029,60.043 3.105,90.042c2.66,7.832 7.317,14.215 13.972,19.146c-23.121,0.862 -46.232,0.69 -69.342,-0.517c7.565,-5.475 12.564,-12.72 15.007,-21.734c0.693,-28.289 0.693,-56.578 -0,-84.867c-1.667,-22.714 -13.745,-34.444 -36.224,-35.188c-20.906,-0.403 -38.148,7.187 -51.748,22.769c-4.377,6.228 -7.141,13.127 -8.279,20.699c-0.694,25.529 -0.694,51.057 -0,76.587c2.546,9.045 7.545,16.462 15.007,22.251c-23.463,0.691 -46.915,0.691 -70.377,0c9.107,-6.018 14.458,-14.47 16.041,-25.356c0.694,-41.398 0.694,-82.797 0,-124.195c-1.676,-10.425 -6.675,-18.876 -15.006,-25.356c17.935,-0.518 35.871,-0.691 53.817,-0.518c-0.176,13.459 0,26.913 0.518,40.364c5.464,-10.988 12.543,-20.82 21.216,-29.497c10.246,-8.752 21.973,-13.755 35.189,-15.007Z" style="stroke:#fff;stroke-width:1px;"/></g><g><path d="M1697.58,137.644c26.629,-2.224 51.127,3.813 73.482,18.112c16.662,12.106 25.635,28.492 26.908,49.161c-12.823,-0.854 -25.584,-2.234 -38.293,-4.14c-1.677,-15.295 -10.298,-23.402 -25.874,-24.322c-18.629,-2.07 -37.258,-2.07 -55.887,0c-5.558,0.612 -10.733,2.337 -15.525,5.175c-6.727,7.145 -6.375,14.044 1.035,20.699c6.852,3.78 14.096,6.539 21.734,8.28c24.725,4.118 49.223,9.293 73.482,15.524c12.389,3.862 23.256,10.243 32.601,19.147c12.637,20.764 9.708,39.222 -8.797,55.37c-16.466,12.238 -35.095,18.793 -55.888,19.664c-38.293,5.582 -70.552,-5.63 -96.768,-33.636c-9.501,-12.131 -14.158,-25.93 -13.972,-41.398c12.389,1.245 24.808,2.28 37.259,3.105c0.838,17.572 9.811,28.439 26.908,32.601c16.456,2.552 33.016,3.242 49.678,2.07c10.526,0.091 20.182,-2.669 28.979,-8.28c3.457,-3.921 3.633,-7.889 0.518,-11.902c-2.329,-1.943 -4.916,-3.495 -7.763,-4.657c-26.07,-6.525 -52.286,-12.39 -78.656,-17.594c-18.702,-3.577 -34.402,-12.374 -47.091,-26.392c-10.577,-20.49 -6.955,-38.257 10.867,-53.3c17.926,-14.198 38.283,-21.96 61.063,-23.287Z" style="stroke:#fff;stroke-width:1px;"/></g><g><path d="M1918.03,137.644c24.363,-1.096 47.474,3.562 69.342,13.972c17.708,9.425 29.269,23.741 34.671,42.951c0.911,19.391 -7.193,33.707 -24.321,42.951c-9.667,5.35 -20.016,8.455 -31.049,9.314c-36.006,1.04 -71.536,-2.582 -106.6,-10.867c1.087,21.961 12.129,36.278 33.118,42.951c22.262,5.389 44.679,6.079 67.273,2.07c15.534,-3.536 28.813,-10.953 39.845,-22.252c1.646,-2.246 3.022,-4.661 4.14,-7.244c5.827,3.259 11.178,7.053 16.042,11.384c-14.127,32.922 -38.966,52.069 -74.517,57.44c-30.593,3.762 -58.879,-2.448 -84.866,-18.629c-34.423,-26.696 -45.642,-61.021 -33.636,-102.978c10.753,-27.657 30.241,-46.114 58.475,-55.37c10.649,-3.039 21.34,-4.936 32.083,-5.693Zm-4.139,37.259c19.653,-1.245 38.966,0.652 57.957,5.692c13.072,6.173 16.011,15.66 8.797,28.461c-8.642,8.641 -19.167,13.299 -31.566,13.972c-28.761,1.904 -57.223,-0.339 -85.384,-6.727c-0.517,-0.345 -1.035,-0.69 -1.552,-1.035c4.191,-16.151 13.847,-27.708 28.978,-34.671c7.566,-2.582 15.163,-4.479 22.77,-5.692Z" style="stroke:#fff;stroke-width:1px;"/></g><g><path d="M751.631,142.819c23.282,-1.203 46.742,-1.376 70.377,-0.517c-8.554,5.551 -13.902,13.313 -16.042,23.286c-0.974,29.701 -0.628,59.369 1.035,89.006c3.929,19.796 16.004,29.801 36.224,30.014c46.319,-3.915 66.328,-29.099 60.027,-75.552c0.69,-13.109 0.69,-26.218 -0,-39.328c-0.968,-11.777 -6.315,-20.918 -16.042,-27.426c23.46,-0.691 46.918,-0.691 70.377,-0c-7.409,5.344 -12.411,12.416 -15.007,21.216c-0.69,44.159 -0.69,88.316 0,132.475c2.596,8.8 7.598,15.872 15.007,21.216c-18.281,0.518 -36.565,0.691 -54.852,0.518c0.172,-13.803 -0,-27.604 -0.518,-41.398c-17.248,38.033 -46.053,51.66 -86.419,40.88c-19.12,-7.39 -32.402,-20.672 -39.846,-39.846c-3.384,-8.709 -5.799,-17.678 -7.244,-26.908c-1.285,-28.265 -1.974,-56.553 -2.07,-84.867c-2.186,-9.571 -7.188,-17.161 -15.007,-22.769Z" style="stroke:#fff;stroke-width:1px;"/></g><g><path d="M291.532,289.956c3.19,-0.254 6.337,0.008 9.441,0.787c-9.138,5.236 -17.268,11.793 -24.391,19.67c-1.049,1.574 -1.049,3.148 0,4.721c13.376,11.278 26.752,22.555 40.128,33.833c2.793,2.265 5.94,3.838 9.441,4.721c5.192,8.597 12.536,14.628 22.031,18.097c2.781,5.145 6.452,9.603 11.015,13.375c-4.086,3.2 -7.495,2.413 -10.228,-2.36c-6.612,6.085 -12.644,12.641 -18.097,19.67c-1.049,0.263 -2.097,0.524 -3.147,0.787c-6.468,-1.921 -12.238,-5.069 -17.31,-9.442c-7.731,8.617 -13.5,18.583 -17.31,29.899c8.38,8.114 17.035,15.982 25.965,23.604c7.14,15.623 11.336,31.883 12.589,48.782c-5.341,1.505 -10.848,2.029 -16.523,1.574c-3.764,-13.132 -7.698,-26.245 -11.802,-39.34c-3.7,11.868 -8.946,24.457 -15.736,37.766c-3.684,3.576 -7.881,4.101 -12.589,1.574c-3.651,-0.472 -5.487,-2.57 -5.508,-6.294c2.45,-6.474 5.335,-12.769 8.655,-18.884c3.147,-11.539 3.147,-23.08 0,-34.619c-3.586,-2.816 -6.733,-5.963 -9.442,-9.442c-1.065,-17.785 4.18,-33.521 15.737,-47.209c4.651,-4.291 10.159,-6.651 16.522,-7.081c-3.875,-10.616 -0.728,-18.484 9.442,-23.604c-12.885,-11.05 -25.998,-21.804 -39.34,-32.259c-8.402,8.39 -14.435,18.356 -18.097,29.898c-1.049,-4.721 -1.049,-9.441 0,-14.162c3.267,-8.106 6.94,-15.974 11.015,-23.605c8.585,-7.811 17.765,-14.629 27.539,-20.457Zm39.34,78.681c-1.328,10.887 1.295,12.723 7.868,5.508c-2.868,-1.569 -5.492,-3.405 -7.868,-5.508Z" style="stroke:#fff;stroke-width:1px;"/></g><g><path d="M1765.89,329.111c15.804,-0.799 28.741,4.722 38.811,16.56c2.587,4.124 3.788,8.608 3.622,13.454c-4.968,0.392 -9.791,-0.125 -14.489,-1.552c-1.346,-6.863 -5.486,-11.003 -12.42,-12.42c-8.683,-1.809 -17.315,-1.12 -25.874,2.07c-8.435,8.329 -9.987,17.816 -4.657,28.461c5.361,5.989 12.088,9.093 20.182,9.315c13.351,-0.117 23.7,-5.638 31.048,-16.559c2.722,1.007 4.792,2.732 6.21,5.174c-9.408,21.263 -25.615,29.37 -48.643,24.322c-23.079,-8.393 -31.194,-24.434 -24.321,-48.126c6.955,-11.671 17.138,-18.571 30.531,-20.699Z" style="stroke:#fff;stroke-width:1px;"/></g><g><path d="M1849.72,329.111c18.692,-1.098 32.322,6.492 40.881,22.769c5.63,19.96 -0.756,34.623 -19.147,43.986c-13.951,5.444 -27.405,4.409 -40.363,-3.105c-12.171,-9.247 -16.828,-21.495 -13.972,-36.741c5.403,-15.579 16.27,-24.548 32.601,-26.909Zm4.14,14.49c17.75,1.34 25.16,10.655 22.252,27.943c-7.618,12.084 -18.143,15.706 -31.567,10.867c-10.804,-5.229 -14.779,-13.682 -11.902,-25.356c4.565,-8.548 11.633,-13.032 21.217,-13.454Z" style="stroke:#fff;stroke-width:1px;"/></g><g><path d="M1940.8,329.111c14.262,-0.387 23.411,6.168 27.427,19.664c9.884,-19.573 24.539,-24.23 43.985,-13.971c4.119,4.27 7.059,9.272 8.797,15.006c1.253,13.068 1.936,26.176 2.07,39.329c1.066,3.145 2.96,5.732 5.693,7.762c-9.315,0.69 -18.63,0.69 -27.944,-0c2.98,-1.295 4.874,-3.537 5.692,-6.727c0.693,-12.42 0.693,-24.839 0,-37.259c-1.915,-5.365 -5.713,-8.47 -11.384,-9.314c-10.526,0.423 -18.123,5.252 -22.769,14.489c-1.615,9.942 -1.957,19.946 -1.035,30.014c0.724,3.69 2.618,6.623 5.692,8.797c-8.973,0.69 -17.936,0.69 -26.909,-0c3.074,-2.174 4.968,-5.107 5.692,-8.797c0.694,-10.005 0.694,-20.009 0,-30.014c0.187,-8.607 -3.953,-13.437 -12.419,-14.489c-10.991,0.311 -18.578,5.486 -22.769,15.524c-0.694,10.35 -0.694,20.699 -0,31.049c0.817,3.19 2.711,5.432 5.692,6.727c-9.315,0.69 -18.629,0.69 -27.944,-0c2.764,-1.9 4.668,-4.488 5.692,-7.762c0.694,-16.56 0.694,-33.119 0,-49.678c-1.024,-3.275 -2.928,-5.862 -5.692,-7.762c7.235,-0.518 14.479,-0.69 21.734,-0.518c-0.176,4.498 0,8.983 0.518,13.455c4.274,-8.617 11.001,-13.792 20.181,-15.525Z" style="stroke:#fff;stroke-width:1px;"/></g><g><rect x="398.538" y="430.008" width="4.721" height="6.294" style="stroke:#fff;stroke-width:1px;"/></g><g><path d="M1710,377.754c14.728,-0.372 18.867,6.01 12.42,19.147c-12.12,5.112 -18.164,1.145 -18.112,-11.902c1.004,-3.23 2.898,-5.645 5.692,-7.245Z" style="stroke:#fff;stroke-width:1px;"/></g><g><path d="M348.182,488.232c9.025,-0.958 12.172,2.713 9.442,11.016c-9.535,1.408 -12.682,-2.263 -9.442,-11.016Z" style="stroke:#fff;stroke-width:1px;"/></g><g><path d="M260.059,489.806c10.709,5.122 10.185,7.745 -1.573,7.868c-0.211,-2.82 0.313,-5.442 1.573,-7.868Z" style="stroke:#fff;stroke-width:1px;"/></g><g><path d="M337.167,489.806c6.615,1.57 7.139,3.67 1.573,6.294c-1.462,-1.871 -1.986,-3.968 -1.573,-6.294Z" style="stroke:#fff;stroke-width:1px;"/></g><g><path d="M305.694,491.38c4.196,-0.683 6.032,0.89 5.508,4.72c-2.855,1.983 -5.739,1.983 -8.655,0c1.091,-1.602 2.139,-3.175 3.147,-4.72Z" style="stroke:#fff;stroke-width:1px;"/></g><g><path d="M291.532,496.1c6.041,0.866 6.041,2.44 -0,4.721c-1.671,-1.455 -1.671,-3.029 -0,-4.721Z" style="stroke:#fff;stroke-width:1px;"/></g><g><path d="M249.044,502.395c8.104,-1.811 16.498,-2.073 25.178,-0.787c-8.376,0.785 -16.768,1.048 -25.178,0.787Z" style="stroke:#fff;stroke-width:1px;"/></g><g><path d="M299.4,502.395c4.412,-1.791 9.133,-2.054 14.162,-0.787c-4.692,0.784 -9.413,1.047 -14.162,0.787Z" style="stroke:#fff;stroke-width:1px;"/></g><g><path d="M332.446,502.395c4.941,-1.796 10.186,-2.058 15.736,-0.787c-5.22,0.784 -10.465,1.047 -15.736,0.787Z" style="stroke:#fff;stroke-width:1px;"/></g></svg>